<?xml version="1.0" encoding="UTF-8"?>
<svg width="414px" height="357px" viewBox="0 0 414 357" version="1.1" xmlns="http://www.w3.org/2000/svg" xmlns:xlink="http://www.w3.org/1999/xlink">
    <!-- Generator: Sketch 57.1 (83088) - https://sketch.com -->
    <title>未命名</title>
    <desc>Created with Sketch.</desc>
    <defs>
        <radialGradient cx="50%" cy="0%" fx="50%" fy="0%" r="165.275627%" gradientTransform="translate(0.500000,0.000000),scale(1.000000,0.635191),rotate(136.266276),translate(-0.500000,-0.000000)" id="radialGradient-1">
            <stop stop-color="#979797" offset="0%"></stop>
            <stop stop-color="#9E9E9E" offset="13.0283116%"></stop>
            <stop stop-color="#ACACAC" offset="40.7008466%"></stop>
            <stop stop-color="#BBBBBB" offset="66.5712677%"></stop>
            <stop stop-color="#E3DEDE" offset="100%"></stop>
        </radialGradient>
        <radialGradient cx="2.258241%" cy="1.41641368%" fx="2.258241%" fy="1.41641368%" r="123.09779%" gradientTransform="translate(0.022582,0.014164),scale(0.921828,1.000000),rotate(53.211909),translate(-0.022582,-0.014164)" id="radialGradient-2">
            <stop stop-color="#EEE8E8" offset="0%"></stop>
            <stop stop-color="#BAB9B9" offset="45.9677844%"></stop>
            <stop stop-color="#ADA8A8" offset="74.8214507%"></stop>
            <stop stop-color="#8E8989" offset="100%"></stop>
        </radialGradient>
    </defs>
    <g id="页面-1" stroke="none" stroke-width="1" fill="none" fill-rule="evenodd">
        <g id="fmc-logo" transform="translate(1.659882, 1.908875)" fill-rule="nonzero">
            <path d="M411.309587,0.0911250443 L411.309587,354.267394 L352.309587,354.267394 L352.309587,110.967772 L325.340118,129.133125 L325.340118,57.997125 L411.309587,0.0911250443 Z M286.340118,84.266125 L286.340118,155.402125 L219.300967,200.558543 L186.340118,151.624072 L286.340118,84.266125 Z" id="形状结合" fill="url(#radialGradient-1)"></path>
            <path d="M384.309587,0.0911250443 L384.309587,354.267394 L325.309587,354.267394 L325.309587,110.967772 L298.340118,129.133125 L298.340118,57.997125 L384.309587,0.0911250443 Z M0,-5.68434189e-14 L192.223,129.475 L259.340118,84.266125 L259.340118,155.402125 L192.300967,200.558543 L192.123,200.296 L192.00862,200.467418 L59,110.876647 L59,354.176269 L0,354.176269 L0,-5.68434189e-14 Z" id="形状结合" stroke="#FCFBFB" fill="url(#radialGradient-2)"></path>
        </g>
    </g>
</svg>